# Blender v2.78 (sub 0) OBJ File: 'object1.blend'
# www.blender.org
mtllib object1.mtl
o Icosphere
v 0.606563 1.388753 -0.605194
v 0.760317 -1.118616 1.080542
v 1.768729 -0.995298 -0.532779
v 1.919823 -1.048674 -0.846658
v 2.587778 0.868598 1.333134
v 2.479051 -0.064925 1.962486
v 1.752097 -0.634346 2.438848
v 2.570438 -0.438376 -1.189023
v 3.108481 0.349612 -0.633866
v 1.172867 -0.392311 2.512829
v 0.295482 -0.183762 0.267974
v 1.620998 -0.596589 -1.605824
v 0.867504 0.482786 -1.977800
v 2.067167 1.206309 -0.665058
v 1.309387 1.576177 -0.276828
v -0.043089 1.119049 -1.187192
v 2.060948 0.713907 -1.448652
v 1.481498 1.268069 1.328606
v 1.712920 0.488068 2.655217
v 0.527648 -0.456246 -1.633388
v 1.863448 -0.945027 1.245679
v 0.594049 -1.055816 -1.225870
v 0.685814 -1.327490 -0.222832
v 0.008812 0.093870 0.032484
v -0.606330 1.154602 -0.433568
v -1.690481 -0.838048 -0.716389
v -0.073507 -1.253664 -0.264594
v -0.123916 -0.731338 -1.090410
v -2.405065 0.726445 0.980004
v -1.607035 -0.486164 1.945359
v -2.325137 -0.234187 -1.013958
v -2.365121 0.470822 -0.822500
v -0.937904 -0.443370 2.147169
v -0.890141 0.431369 0.796213
v -1.358907 -0.529858 -1.409048
v -0.011776 -0.317719 -1.704329
v -0.594618 0.233474 -1.662046
v -1.822781 0.929549 -0.253388
v -1.180747 1.350518 -0.159609
v 0.567787 0.811383 0.258128
v -1.071614 0.734725 -1.369090
v -1.844422 0.676447 -1.286852
v -0.341566 0.616107 -0.003576
v -1.477750 1.018800 0.807185
v -1.420118 0.418537 2.170380
v -0.470658 -0.378477 -1.275407
v -0.693364 -0.145281 0.365908
v -2.797046 0.079316 -0.396165
v -1.752169 -0.754850 0.747507
v -1.572175 -0.714832 -0.418897
v -0.682317 -0.936874 -0.676796
v 0.288768 -0.826152 0.537907
v -0.618091 -1.055661 0.307158
v -0.775800 -0.737252 0.807761
vn -0.3551 -0.9122 0.2044
vn 0.3748 -0.7242 -0.5788
vn -0.2543 -0.1042 0.9615
vn -0.0986 0.9403 -0.3257
vn 0.1387 0.8380 -0.5277
vn 0.0911 0.8291 -0.5516
vn 0.0889 0.8235 -0.5603
vn -0.4306 0.7591 0.4883
vn -0.6237 0.7526 0.2113
vn 0.4826 0.8682 0.1149
vn 0.5792 0.6881 -0.4370
vn 0.6334 0.1074 -0.7663
vn 0.4055 -0.0266 -0.9137
vn -0.1890 -0.1251 -0.9740
vn -0.2652 0.5787 -0.7712
vn -0.5337 0.1543 0.8315
vn -0.8942 0.2484 0.3725
vn -0.7617 0.4641 0.4522
vn -0.8099 0.4328 0.3958
vn 0.0470 -0.1875 0.9811
vn 0.6122 -0.1290 0.7801
vn 0.7506 0.3070 0.5851
vn 0.3028 0.8437 0.4432
vn 0.3385 0.9383 0.0704
vn 0.4097 -0.0282 -0.9118
vn -0.0197 -0.3380 -0.9409
vn 0.0319 -0.3543 -0.9346
vn -0.0518 -0.5653 -0.8233
vn -0.1331 -0.8105 -0.5704
vn -0.6307 0.3062 0.7131
vn -0.9245 -0.1584 0.3466
vn 0.0764 -0.8980 0.4333
vn 0.6356 0.7712 -0.0352
vn 0.9687 0.0510 0.2430
vn 0.6916 -0.6806 0.2418
vn 0.7801 -0.6191 0.0903
vn 0.7867 -0.6089 0.1017
vn 0.5667 -0.8239 -0.0069
vn 0.7266 -0.5280 0.4396
vn -0.0376 -0.9880 0.1499
vn 0.2097 -0.9388 -0.2734
vn 0.1621 -0.8185 -0.5512
vn -0.0798 -0.9640 -0.2538
vn -0.3873 -0.5472 -0.7420
vn 0.1525 -0.9881 0.0198
vn 0.3249 -0.9365 0.1315
vn -0.1110 -0.8555 0.5058
vn -0.6445 -0.7483 0.1568
vn -0.0037 -0.9757 0.2193
vn -0.4391 -0.7238 -0.5323
vn 0.6648 0.4852 0.5680
vn 0.0370 0.8479 -0.5288
vn -0.1083 0.9260 -0.3617
vn -0.5181 0.8332 -0.1932
vn -0.2961 0.9178 -0.2646
vn -0.2134 0.9553 -0.2045
vn -0.0822 0.8301 0.5515
vn -0.3363 0.4811 0.8096
vn 0.4918 0.6780 0.5463
vn 0.5107 0.6920 0.5102
vn 0.6463 0.6387 0.4177
vn -0.5562 0.8235 0.1117
vn -0.5059 0.8402 -0.1952
vn -0.6907 0.1528 -0.7068
vn -0.3949 -0.0661 -0.9163
vn -0.0268 0.4853 -0.8739
vn 0.8293 0.4552 0.3241
vn 0.6833 0.6785 0.2699
vn -0.2736 -0.1785 0.9451
vn -0.7704 0.0006 0.6376
vn -0.2064 0.8922 0.4016
vn -0.2978 0.9545 0.0166
vn -0.1270 0.4077 -0.9043
vn -0.2945 -0.0218 -0.9554
vn 0.2109 -0.4912 -0.8451
vn -0.5434 -0.5243 -0.6556
vn 0.1919 -0.3012 -0.9341
vn -0.4269 -0.7119 -0.5576
vn 0.0973 0.7003 0.7072
vn 0.5008 -0.4013 0.7669
vn 0.9645 0.2048 0.1667
vn 0.9908 -0.0416 0.1290
vn 0.0043 -0.9766 0.2148
vn -0.5583 0.8196 -0.1286
vn -0.8820 -0.2768 0.3814
vn -0.7259 0.6786 -0.1123
vn -0.7543 0.1319 -0.6431
vn -0.7485 -0.6219 0.2302
vn -0.5420 -0.8328 -0.1122
vn -0.5439 -0.8391 0.0104
vn -0.7102 -0.5043 0.4913
vn -0.0710 -0.8983 -0.4337
vn -0.0229 -0.8826 -0.4695
vn -0.2350 -0.9069 -0.3498
vn -0.3785 -0.5169 -0.7678
vn -0.1049 -0.9034 0.4159
vn -0.2614 -0.9624 -0.0734
vn -0.0176 -0.8462 0.5326
vn -0.2899 -0.9522 -0.0960
vn -0.4157 -0.9058 -0.0822
vn 0.1058 0.3843 0.9171
vn 0.1192 -0.8976 0.4244
vn 0.0702 -0.8315 0.5510
vn 0.2475 0.5572 0.7927
usemtl None
s off
f 21//1 7//1 10//1
f 4//2 12//2 8//2
f 24//3 40//3 43//3
f 15//4 16//4 1//4
f 14//5 17//5 15//5
f 15//6 17//6 16//6
f 17//7 13//7 16//7
f 40//8 15//8 1//8
f 40//9 18//9 15//9
f 18//10 14//10 15//10
f 9//11 17//11 14//11
f 8//12 17//12 9//12
f 8//13 12//13 17//13
f 36//14 37//14 13//14
f 37//15 16//15 13//15
f 11//16 40//16 24//16
f 11//17 10//17 40//17
f 10//18 18//18 40//18
f 10//19 19//19 18//19
f 10//20 7//20 19//20
f 7//21 6//21 19//21
f 6//22 5//22 19//22
f 19//23 5//23 18//23
f 5//24 14//24 18//24
f 12//25 13//25 17//25
f 12//26 20//26 13//26
f 13//27 20//27 36//27
f 12//28 22//28 20//28
f 20//29 28//29 36//29
f 52//30 2//30 11//30
f 11//31 2//31 10//31
f 2//32 21//32 10//32
f 5//33 9//33 14//33
f 6//34 9//34 5//34
f 7//35 21//35 6//35
f 6//36 21//36 9//36
f 21//37 8//37 9//37
f 21//38 3//38 8//38
f 3//39 4//39 8//39
f 3//40 22//40 4//40
f 23//41 22//41 3//41
f 4//42 22//42 12//42
f 23//43 27//43 22//43
f 22//44 28//44 20//44
f 21//45 2//45 3//45
f 2//46 23//46 3//46
f 27//47 23//47 52//47
f 23//48 2//48 52//48
f 49//49 33//49 30//49
f 26//50 31//50 35//50
f 24//51 43//51 34//51
f 39//52 25//52 42//52
f 25//53 41//53 42//53
f 38//54 39//54 42//54
f 41//55 25//55 16//55
f 25//56 1//56 16//56
f 1//57 25//57 40//57
f 40//58 25//58 43//58
f 43//59 25//59 39//59
f 43//60 39//60 34//60
f 34//61 39//61 44//61
f 44//62 39//62 38//62
f 32//63 38//63 42//63
f 31//64 32//64 42//64
f 35//65 31//65 42//65
f 37//66 41//66 16//66
f 33//67 34//67 45//67
f 34//68 44//68 45//68
f 33//69 45//69 30//69
f 30//70 45//70 29//70
f 45//71 44//71 29//71
f 29//72 44//72 38//72
f 42//73 41//73 37//73
f 42//74 37//74 35//74
f 35//75 37//75 46//75
f 37//76 36//76 46//76
f 35//77 46//77 28//77
f 46//78 36//78 28//78
f 11//79 24//79 47//79
f 24//80 34//80 47//80
f 47//81 34//81 33//81
f 47//82 33//82 54//82
f 54//83 33//83 49//83
f 29//84 38//84 32//84
f 30//85 29//85 48//85
f 29//86 32//86 48//86
f 48//87 32//87 31//87
f 30//88 48//88 49//88
f 49//89 48//89 50//89
f 48//90 31//90 50//90
f 50//91 31//91 26//91
f 26//92 35//92 51//92
f 51//93 35//93 28//93
f 27//94 51//94 22//94
f 51//95 28//95 22//95
f 50//96 26//96 51//96
f 49//97 50//97 51//97
f 54//98 49//98 53//98
f 49//99 51//99 53//99
f 53//100 51//100 27//100
f 52//101 11//101 47//101
f 27//102 52//102 53//102
f 53//103 52//103 54//103
f 52//104 47//104 54//104
