P3
4 4 255
239 239 239 239 239 239 239 239 239 239 239 239 
239 239 239 0 255 0 0 255 0 239 239 239 
239 239 239 0 255 0 0 255 0 239 239 239 
239 239 239 239 239 239 239 239 239 239 239 239 
