P3
8 8 255
0 0 0 0 0 0 0 0 0 0 0 0 0 0 0 0 0 0 0 0 0 0 0 0 
0 0 0 0 0 0 0 0 0 0 0 0 0 0 0 0 0 0 0 0 0 0 0 0 
0 0 0 0 0 0 0 0 0 71 29 36 89 30 22 0 0 0 0 0 0 0 0 0 
0 0 0 0 0 0 36 29 71 70 37 70 163  59  65 89 30 22 0 0 0 0 0 0 
0 0 0 0 0 0 22 30 89  65  59 163 70 37 70 71 29 36 0 0 0 0 0 0 
0 0 0 0 0 0 0 0 0 22 30 89 36 29 71 0 0 0 0 0 0 0 0 0 
0 0 0 0 0 0 0 0 0 0 0 0 0 0 0 0 0 0 0 0 0 0 0 0 
0 0 0 0 0 0 0 0 0 0 0 0 0 0 0 0 0 0 0 0 0 0 0 0 
